<svg width="128" height="128" viewBox="0 0 128 128" fill="none" xmlns="http://www.w3.org/2000/svg">
<g clip-path="url(#clip0_51_30)">
<path d="M128 0H0V128H128V0Z" fill="url(#paint0_linear_51_30)"/>
<path d="M128 0H0V128H128V0Z" fill="white" fill-opacity="0.9"/>
<mask id="mask0_51_30" style="mask-type:luminance" maskUnits="userSpaceOnUse" x="43" y="53" width="31" height="20">
<path d="M73.3183 53H43.2383V72.2H73.3183V53Z" fill="white"/>
</mask>
<g mask="url(#mask0_51_30)">
<path d="M73.3183 65.2842C73.3183 65.345 73.3036 65.4045 73.2748 65.4595C73.246 65.5146 73.2044 65.5632 73.1525 65.6022L65.269 71.5363C65.2005 71.5875 65.1173 71.6208 65.0284 71.6317C64.9393 71.6419 64.8488 71.6304 64.7675 71.5965C64.6861 71.5632 64.6172 71.5101 64.569 71.4429C64.5206 71.3757 64.495 71.2976 64.495 71.2182V68.6685H51.5918C51.4671 68.6685 51.3475 68.6243 51.2594 68.5462C51.1713 68.4682 51.1217 68.3619 51.1217 68.2512C51.1217 68.1405 51.1713 68.0349 51.2594 67.9562C51.3475 67.8781 51.4671 67.8346 51.5918 67.8346H64.965C65.0898 67.8346 65.2095 67.8781 65.2972 67.9562C65.3855 68.0349 65.4348 68.1405 65.4348 68.2512V70.3178L72.1215 65.2842L65.4348 60.2515V62.3176C65.4348 62.4282 65.3855 62.5343 65.2972 62.6128C65.2095 62.6909 65.0898 62.7344 64.965 62.7344H52.0617V65.2842C52.0617 65.3642 52.036 65.4422 51.9878 65.5088C51.9395 65.576 51.8706 65.6298 51.7893 65.663C51.7078 65.6963 51.6174 65.7085 51.5285 65.6976C51.4396 65.6874 51.3561 65.6541 51.2877 65.6022L43.4043 59.6689C43.3523 59.6297 43.3105 59.5809 43.2818 59.526C43.2531 59.4711 43.2383 59.4113 43.2383 59.3508C43.2383 59.2902 43.2531 59.2305 43.2818 59.1755C43.3105 59.1206 43.3523 59.0719 43.4043 59.0327L51.2876 53.099C51.356 53.0476 51.4396 53.0145 51.5285 53.0038C51.6173 52.9931 51.7078 53.0052 51.7892 53.0386C51.8705 53.0721 51.9395 53.1254 51.9877 53.1925C52.036 53.2596 52.0616 53.3375 52.0616 53.4171V55.9669H64.9649C65.0898 55.9669 65.2088 56.0108 65.2972 56.089C65.3855 56.1672 65.4348 56.2733 65.4348 56.3839C65.4348 56.4945 65.3855 56.6006 65.2972 56.6789C65.2088 56.7571 65.0898 56.801 64.9649 56.801H51.5917C51.467 56.801 51.3475 56.7571 51.2593 56.6789C51.1712 56.6006 51.1217 56.4945 51.1217 56.3839V54.3177L44.4349 59.3508L51.1217 64.3837V62.3176C51.1217 62.207 51.1712 62.1009 51.2593 62.0227C51.3475 61.9445 51.467 61.9005 51.5917 61.9005H64.4949V59.3509C64.4949 59.2712 64.5205 59.1933 64.5688 59.1262C64.617 59.0591 64.686 59.0057 64.7674 58.9722C64.8488 58.9388 64.9393 58.9267 65.0284 58.9374C65.1173 58.9482 65.2005 58.9813 65.269 59.0328L73.1525 64.9667C73.2044 65.0058 73.246 65.0544 73.2748 65.1094C73.3036 65.1638 73.3183 65.224 73.3183 65.2842Z" fill="#263238"/>
</g>
<path d="M7.03906 42H40.0311V74.992H7.03906V42Z" fill="white" stroke="#10069F" stroke-width="2"/>
<path d="M17.7384 65.8912C16.718 65.8912 15.7705 65.7126 14.8959 65.3548C14.0213 64.9836 13.2526 64.4736 12.59 63.8242C11.9407 63.1616 11.4371 62.393 11.0793 61.5184C10.7348 60.6437 10.5625 59.7029 10.5625 58.6957C10.5625 57.6886 10.7348 56.7477 11.0793 55.8731C11.4371 54.9985 11.9407 54.2365 12.59 53.5872C13.2526 52.9378 14.0146 52.4276 14.876 52.0565C15.7506 51.6855 16.7047 51.5 17.7384 51.5C18.8515 51.5 19.8322 51.6855 20.6803 52.0565C21.5284 52.4144 22.2771 52.9113 22.9265 53.5474L21.0977 55.3762C20.7134 54.9521 20.2429 54.6208 19.6864 54.3822C19.1298 54.1437 18.4805 54.0245 17.7384 54.0245C17.089 54.0245 16.4927 54.1371 15.9494 54.3624C15.4193 54.5744 14.9555 54.8924 14.558 55.3165C14.1604 55.7273 13.8556 56.2243 13.6436 56.8073C13.4316 57.3772 13.3255 58.0066 13.3255 58.6957C13.3255 59.398 13.4316 60.0341 13.6436 60.604C13.8556 61.1739 14.1604 61.6708 14.558 62.0948C14.9555 62.5056 15.4193 62.8237 15.9494 63.049C16.4927 63.2743 17.089 63.3869 17.7384 63.3869C18.5203 63.3869 19.1894 63.2676 19.7461 63.0291C20.3158 62.7906 20.7929 62.4526 21.1772 62.0153L23.006 63.8441C22.3566 64.4934 21.6013 64.9971 20.7399 65.3548C19.8785 65.7126 18.878 65.8912 17.7384 65.8912Z" fill="#10069F"/>
<path opacity="0.9" d="M27.9839 65.6928V63.4864H31.6215C32.2708 63.4864 32.7744 63.2876 33.1322 62.89C33.5032 62.4924 33.6888 62.022 33.6888 61.4787C33.6888 61.1077 33.6093 60.7698 33.4502 60.4649C33.2912 60.1602 33.0527 59.9216 32.7347 59.7493C32.4299 59.5638 32.0588 59.4711 31.6215 59.4711H27.9839V57.2845H31.3233C31.8799 57.2845 32.3238 57.1454 32.6552 56.867C32.9997 56.5888 33.172 56.1714 33.172 55.6148C33.172 55.045 32.9997 54.6209 32.6552 54.3426C32.3238 54.0643 31.8799 53.9252 31.3233 53.9252H27.9839V51.7188H31.6413C32.569 51.7188 33.3443 51.891 33.967 52.2356C34.6031 52.5669 35.0803 53.0108 35.3983 53.5674C35.7163 54.1107 35.8753 54.707 35.8753 55.3564C35.8753 56.1515 35.6301 56.8405 35.1398 57.4236C34.6628 57.9935 33.9604 58.4176 33.0328 58.6958L33.1521 57.8212C34.1857 58.1127 34.9809 58.5964 35.5374 59.2723C36.1073 59.9349 36.3921 60.7366 36.3921 61.6775C36.3921 62.4196 36.2067 63.0955 35.8356 63.705C35.4778 64.3013 34.9477 64.7852 34.2454 65.1558C33.5563 65.5142 32.7147 65.6928 31.7209 65.6928H27.9839ZM25.9961 65.6928V51.7188H28.6796V65.6928H25.9961Z" fill="#263238"/>
<path d="M9.20166 86.2307C8.84025 86.2307 8.5047 86.1674 8.19494 86.0407C7.88518 85.9095 7.61292 85.7283 7.3783 85.4986C7.14828 85.2637 6.96998 84.9917 6.84326 84.6819C6.72121 84.3722 6.66016 84.0388 6.66016 83.6823C6.66016 83.3258 6.72121 82.9923 6.84326 82.6826C6.96998 82.3728 7.14828 82.1027 7.3783 81.873C7.61292 81.6432 7.88281 81.4621 8.1879 81.3309C8.49766 81.1997 8.83558 81.1338 9.20166 81.1338C9.5959 81.1338 9.94316 81.1997 10.2435 81.3309C10.5439 81.4576 10.8091 81.6336 11.0391 81.8589L10.3914 82.5066C10.2553 82.3562 10.0887 82.2391 9.89158 82.1546C9.69446 82.0701 9.46444 82.0279 9.20166 82.0279C8.97164 82.0279 8.76044 82.0675 8.56806 82.1475C8.38028 82.2224 8.216 82.3351 8.0752 82.4855C7.9344 82.6307 7.82649 82.8067 7.75142 83.0135C7.67628 83.2151 7.63878 83.4384 7.63878 83.6823C7.63878 83.9312 7.67628 84.1565 7.75142 84.3581C7.82649 84.5597 7.9344 84.7357 8.0752 84.8861C8.216 85.0314 8.38028 85.144 8.56806 85.224C8.76044 85.304 8.97164 85.3437 9.20166 85.3437C9.47852 85.3437 9.71558 85.3015 9.9127 85.217C10.1145 85.1325 10.2835 85.0128 10.4196 84.8579L11.0673 85.5056C10.8372 85.7354 10.5697 85.9139 10.2647 86.0407C9.95961 86.1674 9.60524 86.2307 9.20166 86.2307Z" fill="#10069F"/>
<path d="M11.6328 86.1602V81.0703H12.5551V86.1602H11.6328Z" fill="#10069F"/>
<path d="M13.3727 86.1607V82.7604H14.302V86.1607H13.3727ZM13.8374 82.2113C13.6872 82.2113 13.5628 82.162 13.4642 82.0634C13.3657 81.9604 13.3164 81.8337 13.3164 81.6833C13.3164 81.538 13.3657 81.4132 13.4642 81.3102C13.5628 81.2071 13.6872 81.1553 13.8374 81.1553C13.9922 81.1553 14.1167 81.2071 14.2105 81.3102C14.309 81.4132 14.3583 81.538 14.3583 81.6833C14.3583 81.8337 14.309 81.9604 14.2105 82.0634C14.1167 82.162 13.9922 82.2113 13.8374 82.2113Z" fill="#10069F"/>
<path d="M16.7249 86.2308C16.3776 86.2308 16.0655 86.1533 15.7886 85.9985C15.5117 85.8436 15.2934 85.6324 15.1339 85.3649C14.9743 85.0973 14.8945 84.7972 14.8945 84.4637C14.8945 84.1258 14.9743 83.8231 15.1339 83.5556C15.2934 83.2881 15.5117 83.0769 15.7886 82.922C16.0702 82.7626 16.3823 82.6826 16.7249 82.6826C16.9925 82.6826 17.2389 82.7319 17.4641 82.8305C17.6894 82.929 17.8842 83.0698 18.0485 83.2529L17.4571 83.8513C17.3679 83.7527 17.26 83.6778 17.1333 83.626C17.0112 83.5741 16.8751 83.5485 16.7249 83.5485C16.556 83.5485 16.4034 83.5882 16.2673 83.6682C16.1359 83.7431 16.0303 83.8487 15.9505 83.985C15.8754 84.1162 15.8379 84.2737 15.8379 84.4567C15.8379 84.6353 15.8754 84.7946 15.9505 84.9354C16.0303 85.0717 16.1359 85.1793 16.2673 85.2593C16.4034 85.3341 16.556 85.3719 16.7249 85.3719C16.8798 85.3719 17.0182 85.3463 17.1403 85.2945C17.267 85.2381 17.3749 85.1581 17.4641 85.0551L18.0625 85.6535C17.8888 85.841 17.6894 85.9844 17.4641 86.0829C17.2389 86.1815 16.9925 86.2308 16.7249 86.2308Z" fill="#10069F"/>
<path d="M20.7543 86.1602L19.4378 84.4073L20.7472 82.7599H21.8103L20.2755 84.6185L20.3107 84.1679L21.8807 86.1602H20.7543ZM18.5859 86.1602V81.0703H19.5082V86.1602H18.5859Z" fill="#10069F"/>
<path opacity="0.9" d="M24.4813 86.1601V85.3786H25.7697C25.9996 85.3786 26.178 85.3082 26.3047 85.1674C26.4361 85.0266 26.5018 84.8602 26.5018 84.6676C26.5018 84.5364 26.4737 84.4167 26.4173 84.3085C26.361 84.2004 26.2765 84.1159 26.1639 84.0551C26.0559 83.9892 25.9245 83.9565 25.7697 83.9565H24.4813V83.1821H25.6641C25.8612 83.1821 26.0184 83.1329 26.1357 83.0343C26.2577 82.9357 26.3188 82.7879 26.3188 82.5908C26.3188 82.3892 26.2577 82.2388 26.1357 82.1402C26.0184 82.0417 25.8612 81.9924 25.6641 81.9924H24.4813V81.2109H25.7767C26.1052 81.2109 26.3798 81.2717 26.6004 81.394C26.8257 81.5111 26.9946 81.6685 27.1073 81.8657C27.2199 82.0583 27.2762 82.2695 27.2762 82.4993C27.2762 82.7809 27.1894 83.0247 27.0157 83.2314C26.8468 83.433 26.598 83.5834 26.2695 83.682L26.3117 83.3722C26.6778 83.4753 26.9594 83.6468 27.1565 83.8861C27.3583 84.121 27.4593 84.4045 27.4593 84.738C27.4593 85.001 27.3935 85.2404 27.2621 85.4561C27.1354 85.6673 26.9476 85.8388 26.6989 85.97C26.4548 86.0967 26.1569 86.1601 25.8049 86.1601H24.4813ZM23.7773 86.1601V81.2109H24.7277V86.1601H23.7773Z" fill="#263238"/>
<path opacity="0.9" d="M29.5434 86.2306C29.2337 86.2306 28.9544 86.1531 28.7057 85.9983C28.457 85.8434 28.2622 85.6322 28.1214 85.3647C27.9806 85.0971 27.9102 84.797 27.9102 84.4635C27.9102 84.1256 27.9806 83.8229 28.1214 83.5554C28.2622 83.2879 28.457 83.0767 28.7057 82.9218C28.9544 82.7669 29.2337 82.6895 29.5434 82.6895C29.7875 82.6895 30.0058 82.7387 30.1982 82.8373C30.3906 82.9359 30.5431 83.0741 30.6558 83.2527C30.7731 83.4261 30.8365 83.6232 30.8458 83.844V85.069C30.8365 85.2943 30.7731 85.4939 30.6558 85.6674C30.5431 85.8408 30.3906 85.9797 30.1982 86.0827C30.0058 86.1813 29.7875 86.2306 29.5434 86.2306ZM29.7124 85.3787C29.9706 85.3787 30.1794 85.2943 30.339 85.1253C30.4986 84.9519 30.5783 84.7285 30.5783 84.4565C30.5783 84.2779 30.5408 84.1211 30.4657 83.9848C30.3953 83.844 30.2944 83.7359 30.163 83.661C30.0362 83.581 29.8861 83.5413 29.7124 83.5413C29.5434 83.5413 29.3933 83.581 29.2618 83.661C29.1351 83.7359 29.0343 83.844 28.9591 83.9848C28.8887 84.1211 28.8535 84.2779 28.8535 84.4565C28.8535 84.6395 28.8887 84.8015 28.9591 84.9423C29.0343 85.0786 29.1351 85.1861 29.2618 85.2661C29.3933 85.341 29.5434 85.3787 29.7124 85.3787ZM30.529 86.1602V85.245L30.6769 84.4143L30.529 83.5976V82.7599H31.4442V86.1602H30.529Z" fill="#263238"/>
<path opacity="0.9" d="M34.5458 86.1602V84.2101C34.5458 84.0085 34.4825 83.844 34.3557 83.7173C34.229 83.5906 34.0648 83.5272 33.8629 83.5272C33.7315 83.5272 33.6142 83.5554 33.5109 83.6117C33.4077 83.668 33.3256 83.748 33.2645 83.8511C33.2082 83.9541 33.1801 84.0738 33.1801 84.2101L32.821 84.0271C32.821 83.7595 32.8773 83.5272 32.99 83.3301C33.1073 83.1285 33.2669 82.9711 33.4687 82.8584C33.6752 82.7458 33.9075 82.6895 34.1657 82.6895C34.4144 82.6895 34.6373 82.7528 34.8345 82.8795C35.0316 83.0018 35.1865 83.1637 35.2991 83.3653C35.4117 83.5624 35.4681 83.7762 35.4681 84.0059V86.1602H34.5458ZM32.2578 86.1602V82.7599H33.1801V86.1602H32.2578Z" fill="#263238"/>
<path opacity="0.9" d="M38.3793 86.1602L37.0628 84.4073L38.3722 82.7599H39.4353L37.9005 84.6185L37.9357 84.1679L39.5057 86.1602H38.3793ZM36.2109 86.1602V81.0703H37.1332V86.1602H36.2109Z" fill="#263238"/>
<mask id="mask1_51_30" style="mask-type:luminance" maskUnits="userSpaceOnUse" x="78" y="46" width="45" height="27">
<path d="M122.238 46H78.0781V72.88H122.238V46Z" fill="white"/>
</mask>
<g mask="url(#mask1_51_30)">
<path d="M82.1762 46H118.122C120.397 46 122.238 47.8755 122.238 50.1924V64.1668C122.238 66.4838 120.397 68.359 118.122 68.359H105.232L107.001 72.7718L99.2194 68.359H82.1947C79.9202 68.359 78.0783 66.4838 78.0783 64.1668V50.1924C78.0603 47.8939 79.9016 46 82.1762 46Z" fill="#7F54B3"/>
<path d="M80.5903 49.8212C80.8419 49.4738 81.2188 49.291 81.7212 49.2545C82.6364 49.1813 83.1574 49.6201 83.2828 50.5708C83.8396 54.392 84.4495 57.628 85.0959 60.2791L89.0275 52.6552C89.3865 51.9604 89.8351 51.5947 90.374 51.5582C91.1638 51.5033 91.6483 52.0153 91.846 53.0939C92.2947 55.5256 92.8687 57.5915 93.551 59.3466C94.0175 54.7027 94.8079 51.3571 95.9209 49.2911C96.1897 48.7791 96.5852 48.5232 97.1055 48.4866C97.5183 48.45 97.8953 48.578 98.2364 48.8523C98.5775 49.1265 98.7567 49.4738 98.7932 49.8944C98.8111 50.2235 98.7567 50.4977 98.6134 50.772C97.9132 52.0883 97.3391 54.3006 96.8719 57.372C96.4233 60.3521 96.262 62.674 96.3695 64.3377C96.4054 64.7948 96.3337 65.197 96.1539 65.5442C95.9388 65.9467 95.6156 66.1663 95.2028 66.2027C94.7363 66.2392 94.2511 66.0197 93.7846 65.5263C92.1148 63.7892 90.7868 61.1931 89.8172 57.7376C88.6505 60.0778 87.7891 61.833 87.2323 63.0031C86.1737 65.069 85.2758 66.1291 84.5219 66.1842C84.0374 66.2207 83.6246 65.8002 83.2655 64.9227C82.3497 62.5276 81.3622 57.9021 80.303 51.0461C80.2313 50.5708 80.3395 50.1503 80.5903 49.8212ZM119.168 52.6916C118.522 51.5398 117.571 50.8449 116.296 50.5707C115.955 50.4976 115.632 50.461 115.327 50.461C113.603 50.461 112.203 51.3752 111.108 53.2034C110.175 54.7575 109.708 56.4762 109.708 58.3592C109.708 59.7669 109.995 60.9736 110.57 61.9792C111.216 63.131 112.167 63.8258 113.442 64.1001C113.783 64.1732 114.106 64.2098 114.411 64.2098C116.153 64.2098 117.552 63.2956 118.629 61.4673C119.563 59.895 120.03 58.1763 120.03 56.2933C120.048 54.8673 119.742 53.679 119.168 52.6916ZM116.907 57.7559C116.655 58.9626 116.206 59.8584 115.542 60.4618C115.022 60.9372 114.537 61.1383 114.088 61.0469C113.657 60.9555 113.298 60.5715 113.029 59.8585C112.814 59.2918 112.706 58.725 112.706 58.1948C112.706 57.7377 112.741 57.2806 112.832 56.8602C112.993 56.1105 113.298 55.3793 113.783 54.6845C114.375 53.7886 115.004 53.423 115.65 53.5509C116.081 53.6424 116.44 54.0263 116.709 54.7393C116.924 55.306 117.032 55.8728 117.032 56.4031C117.032 56.8784 116.996 57.3354 116.907 57.7559ZM107.931 52.6916C107.284 51.5398 106.315 50.8449 105.059 50.5707C104.718 50.4976 104.395 50.461 104.089 50.461C102.366 50.461 100.966 51.3752 99.871 53.2034C98.9372 54.7575 98.4707 56.4762 98.4707 58.3592C98.4707 59.7669 98.7574 60.9736 99.3321 61.9792C99.9785 63.131 100.93 63.8258 102.204 64.1001C102.546 64.1732 102.869 64.2098 103.173 64.2098C104.915 64.2098 106.315 63.2956 107.392 61.4673C108.325 59.895 108.793 58.1763 108.793 56.2933C108.793 54.8673 108.505 53.679 107.931 52.6916ZM105.651 57.7559C105.399 58.9626 104.951 59.8584 104.286 60.4618C103.766 60.9372 103.282 61.1383 102.832 61.0469C102.402 60.9555 102.042 60.5715 101.774 59.8585C101.558 59.2918 101.451 58.725 101.451 58.1948C101.451 57.7377 101.486 57.2806 101.576 56.8602C101.737 56.1105 102.043 55.3793 102.528 54.6845C103.12 53.7886 103.748 53.423 104.394 53.5509C104.825 53.6424 105.184 54.0263 105.454 54.7393C105.669 55.306 105.777 55.8728 105.777 56.4031C105.795 56.8784 105.74 57.3354 105.651 57.7559Z" fill="white"/>
</g>
<path d="M74.0817 83.1203L72.4766 78.1712H73.4199L74.6097 81.9798H74.2929L75.4615 78.1712H76.1726L77.3412 81.9798H77.0174L78.2142 78.1712H79.1575L77.5454 83.1203H76.8343L75.6586 79.3187H75.9684L74.7998 83.1203H74.0817ZM80.8458 83.1907C80.5028 83.1907 80.193 83.1133 79.9166 82.9584C79.6439 82.799 79.4257 82.5853 79.2618 82.3177C79.1018 82.0457 79.0225 81.743 79.0225 81.4096C79.0225 81.0761 79.1018 80.7785 79.2618 80.5155C79.4212 80.248 79.6394 80.0368 79.9166 79.8819C80.193 79.7225 80.5009 79.6425 80.8388 79.6425C81.1857 79.6425 81.4954 79.7225 81.7681 79.8819C82.0446 80.0368 82.2628 80.248 82.4228 80.5155C82.5822 80.7785 82.6622 81.0761 82.6622 81.4096C82.6622 81.743 82.5822 82.0457 82.4228 82.3177C82.2628 82.5853 82.0446 82.799 81.7681 82.9584C81.4954 83.1133 81.1882 83.1907 80.8458 83.1907ZM80.8388 82.3318C81.0122 82.3318 81.1646 82.2941 81.2964 82.2192C81.4321 82.1392 81.5358 82.0317 81.6062 81.8953C81.681 81.7545 81.7188 81.5952 81.7188 81.4166C81.7188 81.2381 81.681 81.0813 81.6062 80.9449C81.5306 80.8086 81.4276 80.703 81.2964 80.6281C81.1646 80.5481 81.0122 80.5085 80.8388 80.5085C80.6698 80.5085 80.5194 80.5481 80.3882 80.6281C80.2564 80.703 80.1534 80.8086 80.0785 80.9449C80.003 81.0813 79.9658 81.2381 79.9658 81.4166C79.9658 81.5952 80.003 81.7545 80.0785 81.8953C80.1534 82.0317 80.2564 82.1392 80.3882 82.2192C80.5194 82.2941 80.6698 82.3318 80.8388 82.3318ZM84.8535 83.1907C84.5111 83.1907 84.2014 83.1133 83.9242 82.9584C83.6522 82.799 83.434 82.5853 83.2695 82.3177C83.1102 82.0457 83.0302 81.743 83.0302 81.4096C83.0302 81.0761 83.1102 80.7785 83.2695 80.5155C83.4295 80.248 83.6478 80.0368 83.9242 79.8819C84.2014 79.7225 84.5086 79.6425 84.8465 79.6425C85.194 79.6425 85.5038 79.7225 85.7758 79.8819C86.0529 80.0368 86.2711 80.248 86.4305 80.5155C86.5905 80.7785 86.6698 81.0761 86.6698 81.4096C86.6698 81.743 86.5905 82.0457 86.4305 82.3177C86.2711 82.5853 86.0529 82.799 85.7758 82.9584C85.5038 83.1133 85.1966 83.1907 84.8535 83.1907ZM84.8465 82.3318C85.0206 82.3318 85.1729 82.2941 85.3041 82.2192C85.4404 82.1392 85.5434 82.0317 85.6138 81.8953C85.6894 81.7545 85.7265 81.5952 85.7265 81.4166C85.7265 81.2381 85.6894 81.0813 85.6138 80.9449C85.539 80.8086 85.4359 80.703 85.3041 80.6281C85.1729 80.5481 85.0206 80.5085 84.8465 80.5085C84.6775 80.5085 84.5278 80.5481 84.3959 80.6281C84.2647 80.703 84.1617 80.8086 84.0862 80.9449C84.0113 81.0813 83.9735 81.2381 83.9735 81.4166C83.9735 81.5952 84.0113 81.7545 84.0862 81.8953C84.1617 82.0317 84.2647 82.1392 84.3959 82.2192C84.5278 82.2941 84.6775 82.3318 84.8465 82.3318ZM89.6574 83.1907C89.2958 83.1907 88.9604 83.1273 88.6507 83.0006C88.3409 82.8694 88.0689 82.6883 87.834 82.4585C87.6042 82.2237 87.4257 81.9517 87.299 81.6419C87.1767 81.3321 87.1159 80.9987 87.1159 80.6422C87.1159 80.2857 87.1767 79.9523 87.299 79.6425C87.4257 79.3328 87.6042 79.0627 87.834 78.8329C88.0689 78.6032 88.3383 78.4221 88.6436 78.2909C88.9534 78.1597 89.2913 78.0938 89.6574 78.0938C90.0516 78.0938 90.3991 78.1597 90.6993 78.2909C90.9994 78.4176 91.265 78.5936 91.4948 78.8189L90.8471 79.4665C90.7108 79.3161 90.5444 79.199 90.3473 79.1145C90.1502 79.0301 89.9204 78.9878 89.6574 78.9878C89.4276 78.9878 89.2164 79.0275 89.0238 79.1075C88.8362 79.1824 88.6718 79.295 88.531 79.4454C88.3902 79.5907 88.282 79.7667 88.2071 79.9734C88.1322 80.175 88.0945 80.3984 88.0945 80.6422C88.0945 80.8912 88.1322 81.1165 88.2071 81.3181C88.282 81.5197 88.3902 81.6957 88.531 81.8461C88.6718 81.9913 88.8362 82.104 89.0238 82.184C89.2164 82.264 89.4276 82.3037 89.6574 82.3037C89.9345 82.3037 90.1713 82.2614 90.3684 82.1769C90.57 82.0925 90.739 81.9728 90.8753 81.8179L91.523 82.4656C91.2932 82.6953 91.0257 82.8739 90.7204 83.0006C90.4151 83.1273 90.0612 83.1907 89.6574 83.1907ZM93.5985 83.1907C93.2561 83.1907 92.9463 83.1133 92.6692 82.9584C92.3972 82.799 92.179 82.5853 92.0145 82.3177C91.8551 82.0457 91.7751 81.743 91.7751 81.4096C91.7751 81.0761 91.8551 80.7785 92.0145 80.5155C92.1745 80.248 92.3927 80.0368 92.6692 79.8819C92.9463 79.7225 93.2535 79.6425 93.5914 79.6425C93.939 79.6425 94.2487 79.7225 94.5207 79.8819C94.7978 80.0368 95.0161 80.248 95.1754 80.5155C95.3354 80.7785 95.4148 81.0761 95.4148 81.4096C95.4148 81.743 95.3354 82.0457 95.1754 82.3177C95.0161 82.5853 94.7978 82.799 94.5207 82.9584C94.2487 83.1133 93.9415 83.1907 93.5985 83.1907ZM93.5914 82.3318C93.7655 82.3318 93.9178 82.2941 94.049 82.2192C94.1854 82.1392 94.2884 82.0317 94.3588 81.8953C94.4343 81.7545 94.4714 81.5952 94.4714 81.4166C94.4714 81.2381 94.4343 81.0813 94.3588 80.9449C94.2839 80.8086 94.1809 80.703 94.049 80.6281C93.9178 80.5481 93.7655 80.5085 93.5914 80.5085C93.4225 80.5085 93.2727 80.5481 93.1409 80.6281C93.0097 80.703 92.9066 80.8086 92.8311 80.9449C92.7562 81.0813 92.7185 81.2381 92.7185 81.4166C92.7185 81.5952 92.7562 81.7545 92.8311 81.8953C92.9066 82.0317 93.0097 82.1392 93.1409 82.2192C93.2727 82.2941 93.4225 82.3318 93.5914 82.3318ZM96.0087 83.1203V79.72H96.931V83.1203H96.0087ZM98.2263 83.1203V81.1139C98.2263 80.9168 98.163 80.7645 98.0362 80.6563C97.914 80.5437 97.7617 80.4873 97.5786 80.4873C97.4564 80.4873 97.3463 80.5129 97.2478 80.5648C97.1492 80.6115 97.0718 80.6819 97.0154 80.776C96.9591 80.8701 96.931 80.9827 96.931 81.1139L96.5719 80.9379C96.5719 80.6749 96.6282 80.4477 96.7409 80.255C96.858 80.0624 97.0154 79.9145 97.2126 79.8115C97.4097 79.7033 97.6324 79.6496 97.8814 79.6496C98.1162 79.6496 98.3294 79.7033 98.522 79.8115C98.7146 79.9145 98.867 80.0624 98.9796 80.255C99.0922 80.4425 99.1486 80.6704 99.1486 80.9379V83.1203H98.2263ZM100.444 83.1203V81.1139C100.444 80.9168 100.381 80.7645 100.254 80.6563C100.132 80.5437 99.9793 80.4873 99.7962 80.4873C99.6791 80.4873 99.5684 80.5129 99.4654 80.5648C99.3668 80.6115 99.2894 80.6819 99.233 80.776C99.1767 80.8701 99.1486 80.9827 99.1486 81.1139L98.6206 80.9872C98.6391 80.7152 98.7121 80.4803 98.8388 80.2832C98.9655 80.0816 99.1319 79.9267 99.3386 79.8185C99.5454 79.7059 99.7751 79.6496 100.029 79.6496C100.282 79.6496 100.51 79.7033 100.711 79.8115C100.913 79.9145 101.073 80.0649 101.19 80.2621C101.307 80.4592 101.366 80.6941 101.366 80.9661V83.1203H100.444ZM102.114 83.1203V79.72H103.036V83.1203H102.114ZM104.331 83.1203V81.1139C104.331 80.9168 104.268 80.7645 104.141 80.6563C104.019 80.5437 103.867 80.4873 103.684 80.4873C103.561 80.4873 103.451 80.5129 103.353 80.5648C103.254 80.6115 103.177 80.6819 103.12 80.776C103.064 80.8701 103.036 80.9827 103.036 81.1139L102.677 80.9379C102.677 80.6749 102.733 80.4477 102.846 80.255C102.963 80.0624 103.12 79.9145 103.318 79.8115C103.515 79.7033 103.737 79.6496 103.986 79.6496C104.221 79.6496 104.434 79.7033 104.627 79.8115C104.82 79.9145 104.972 80.0624 105.085 80.255C105.197 80.4425 105.254 80.6704 105.254 80.9379V83.1203H104.331ZM106.549 83.1203V81.1139C106.549 80.9168 106.486 80.7645 106.359 80.6563C106.237 80.5437 106.084 80.4873 105.901 80.4873C105.784 80.4873 105.673 80.5129 105.57 80.5648C105.472 80.6115 105.394 80.6819 105.338 80.776C105.282 80.8701 105.254 80.9827 105.254 81.1139L104.726 80.9872C104.744 80.7152 104.817 80.4803 104.944 80.2832C105.07 80.0816 105.237 79.9267 105.444 79.8185C105.65 79.7059 105.88 79.6496 106.134 79.6496C106.387 79.6496 106.615 79.7033 106.816 79.8115C107.018 79.9145 107.178 80.0649 107.295 80.2621C107.412 80.4592 107.471 80.6941 107.471 80.9661V83.1203H106.549ZM109.845 83.1907C109.488 83.1907 109.172 83.1158 108.894 82.9654C108.618 82.8105 108.397 82.5993 108.233 82.3318C108.073 82.0643 107.993 81.759 107.993 81.4166C107.993 81.0787 108.071 80.7785 108.226 80.5155C108.386 80.248 108.601 80.0368 108.873 79.8819C109.146 79.7225 109.449 79.6425 109.782 79.6425C110.11 79.6425 110.399 79.7174 110.647 79.8678C110.901 80.0131 111.098 80.2153 111.239 80.4733C111.385 80.7267 111.457 81.0153 111.457 81.3392C111.457 81.4 111.453 81.4633 111.443 81.5293C111.438 81.5901 111.427 81.6605 111.408 81.7405L108.55 81.7475V81.0576L110.978 81.0505L110.605 81.3392C110.596 81.1376 110.558 80.9686 110.493 80.8323C110.432 80.696 110.34 80.5929 110.218 80.5225C110.101 80.4477 109.956 80.4099 109.782 80.4099C109.598 80.4099 109.439 80.4521 109.303 80.5366C109.167 80.6166 109.062 80.7312 108.986 80.8816C108.916 81.0269 108.88 81.2009 108.88 81.4025C108.88 81.6093 108.918 81.7897 108.993 81.9446C109.073 82.095 109.186 82.2121 109.331 82.2966C109.477 82.3766 109.646 82.4163 109.838 82.4163C110.012 82.4163 110.169 82.3881 110.31 82.3318C110.45 82.271 110.573 82.1814 110.676 82.0643L111.218 82.6064C111.054 82.799 110.852 82.9443 110.612 83.0429C110.378 83.1414 110.122 83.1907 109.845 83.1907ZM112.027 83.1203V79.72H112.95V83.1203H112.027ZM112.95 81.2406L112.59 81.0013C112.633 80.5833 112.755 80.255 112.957 80.0157C113.159 79.7718 113.449 79.6496 113.83 79.6496C113.994 79.6496 114.142 79.6777 114.273 79.7341C114.405 79.7859 114.525 79.8723 114.632 79.9945L114.055 80.6563C114.004 80.6 113.94 80.5577 113.865 80.5296C113.794 80.5014 113.712 80.4873 113.618 80.4873C113.421 80.4873 113.259 80.5507 113.133 80.6774C113.011 80.7997 112.95 80.9872 112.95 81.2406ZM116.465 83.1907C116.118 83.1907 115.806 83.1133 115.529 82.9584C115.252 82.8035 115.033 82.5923 114.874 82.3248C114.715 82.0573 114.635 81.7571 114.635 81.4237C114.635 81.0857 114.715 80.783 114.874 80.5155C115.033 80.248 115.252 80.0368 115.529 79.8819C115.81 79.7225 116.123 79.6425 116.465 79.6425C116.733 79.6425 116.979 79.6918 117.204 79.7904C117.43 79.8889 117.624 80.0297 117.789 80.2128L117.197 80.8112C117.108 80.7126 117 80.6377 116.873 80.5859C116.751 80.5341 116.615 80.5085 116.465 80.5085C116.296 80.5085 116.144 80.5481 116.007 80.6281C115.876 80.703 115.771 80.8086 115.691 80.9449C115.616 81.0761 115.578 81.2336 115.578 81.4166C115.578 81.5952 115.616 81.7545 115.691 81.8953C115.771 82.0317 115.876 82.1392 116.007 82.2192C116.144 82.2941 116.296 82.3318 116.465 82.3318C116.62 82.3318 116.758 82.3062 116.88 82.2544C117.007 82.1981 117.115 82.1181 117.204 82.015L117.803 82.6134C117.629 82.8009 117.43 82.9443 117.204 83.0429C116.979 83.1414 116.733 83.1907 116.465 83.1907ZM119.876 83.1907C119.519 83.1907 119.202 83.1158 118.925 82.9654C118.648 82.8105 118.428 82.5993 118.263 82.3318C118.104 82.0643 118.024 81.759 118.024 81.4166C118.024 81.0787 118.102 80.7785 118.256 80.5155C118.416 80.248 118.632 80.0368 118.904 79.8819C119.176 79.7225 119.479 79.6425 119.812 79.6425C120.141 79.6425 120.429 79.7174 120.678 79.8678C120.932 80.0131 121.129 80.2153 121.27 80.4733C121.415 80.7267 121.488 81.0153 121.488 81.3392C121.488 81.4 121.483 81.4633 121.474 81.5293C121.469 81.5901 121.457 81.6605 121.438 81.7405L118.58 81.7475V81.0576L121.009 81.0505L120.636 81.3392C120.626 81.1376 120.589 80.9686 120.523 80.8323C120.462 80.696 120.371 80.5929 120.249 80.5225C120.132 80.4477 119.986 80.4099 119.812 80.4099C119.629 80.4099 119.47 80.4521 119.334 80.5366C119.197 80.6166 119.092 80.7312 119.017 80.8816C118.946 81.0269 118.911 81.2009 118.911 81.4025C118.911 81.6093 118.949 81.7897 119.024 81.9446C119.104 82.095 119.216 82.2121 119.362 82.2966C119.507 82.3766 119.676 82.4163 119.869 82.4163C120.042 82.4163 120.199 82.3881 120.34 82.3318C120.481 82.271 120.603 82.1814 120.706 82.0643L121.248 82.6064C121.084 82.799 120.882 82.9443 120.643 83.0429C120.408 83.1414 120.153 83.1907 119.876 83.1907Z" fill="#7F54B3"/>
</g>
<defs>
<linearGradient id="paint0_linear_51_30" x1="0" y1="63.9999" x2="128" y2="63.9999" gradientUnits="userSpaceOnUse">
<stop stop-color="#10069F"/>
<stop offset="1" stop-color="#7F54B3"/>
</linearGradient>
<clipPath id="clip0_51_30">
<rect width="128" height="128" fill="white"/>
</clipPath>
</defs>
</svg>
